<?xml version="1.0" encoding="UTF-8" standalone="no"?>
<svg
   xmlns:dc="http://purl.org/dc/elements/1.1/"
   xmlns:cc="http://creativecommons.org/ns#"
   xmlns:rdf="http://www.w3.org/1999/02/22-rdf-syntax-ns#"
   xmlns:svg="http://www.w3.org/2000/svg"
   xmlns="http://www.w3.org/2000/svg"
   xmlns:sodipodi="http://sodipodi.sourceforge.net/DTD/sodipodi-0.dtd"
   xmlns:inkscape="http://www.inkscape.org/namespaces/inkscape"
   version="1.1"
   id="svg2"
   xml:space="preserve"
   width="1058.2677"
   height="595.27557"
   viewBox="0 0 1058.2677 595.27557"
   sodipodi:docname="sync.svg"
   inkscape:version="1.0.2-2 (e86c870879, 2021-01-15)"><metadata
     id="metadata8"><rdf:RDF><cc:Work
         rdf:about=""><dc:format>image/svg+xml</dc:format><dc:type
           rdf:resource="http://purl.org/dc/dcmitype/StillImage" /><dc:title></dc:title></cc:Work></rdf:RDF></metadata><defs
     id="defs6"><clipPath
       clipPathUnits="userSpaceOnUse"
       id="clipPath18"><path
         d="M 0,0.028 H 793.672 V 446.456 H 0 Z"
         clip-rule="evenodd"
         id="path16" /></clipPath></defs><sodipodi:namedview
     pagecolor="#ffffff"
     bordercolor="#666666"
     borderopacity="1"
     objecttolerance="10"
     gridtolerance="10"
     guidetolerance="10"
     inkscape:pageopacity="0"
     inkscape:pageshadow="2"
     inkscape:window-width="1920"
     inkscape:window-height="986"
     id="namedview4"
     showgrid="false"
     inkscape:zoom="1.3439154"
     inkscape:cx="529.13385"
     inkscape:cy="297.63779"
     inkscape:window-x="-11"
     inkscape:window-y="-11"
     inkscape:window-maximized="1"
     inkscape:current-layer="g10" /><g
     id="g10"
     inkscape:groupmode="layer"
     inkscape:label="sync"
     transform="matrix(1.3333333,0,0,-1.3333333,0,595.27559)"><g
       id="g12"><g
         id="g14"
         clip-path="url(#clipPath18)"><path
           d="M 0,446.456 H 793.672 V 0.028 L 0,0.028 Z"
           style="fill:#ffffff;fill-opacity:1;fill-rule:evenodd;stroke:none"
           id="path20" /><g
           id="g22" /><g
           id="g24" /><g
           id="g26"><path
             d="m 107.717,350.078 c 41.782,0 73.7,-29.452 73.7,-68.031 0,-38.58 -31.918,-68.032 -73.7,-68.032 -41.783,0 -73.701,29.452 -73.701,68.032 0,38.579 31.918,68.031 73.701,68.031 z"
             style="fill:none;stroke:#3465a4;stroke-width:0.75;stroke-linecap:butt;stroke-linejoin:round;stroke-miterlimit:10;stroke-dasharray:none;stroke-opacity:1"
             id="path28" /></g><g
           id="g30"><text
             transform="matrix(1,0,0,-1,71.291,285.845)"
             style="font-variant:normal;font-weight:normal;font-size:18px;font-family:'Liberation Sans';-inkscape-font-specification:LiberationSans;writing-mode:lr-tb;fill:#000000;fill-opacity:1;fill-rule:nonzero;stroke:none"
             id="text34"><tspan
               x="0 14.994 25.002001 34.001999 43.902 47.897999 57.798 67.806"
               y="0"
               sodipodi:role="line"
               id="tspan32">Machine </tspan></text></g><g
           id="g36"><text
             transform="matrix(1,0,0,-1,73.701,265.747)"
             style="font-variant:normal;font-weight:normal;font-size:18px;font-family:'Liberation Sans';-inkscape-font-specification:LiberationSans;writing-mode:lr-tb;fill:#000000;fill-opacity:1;fill-rule:nonzero;stroke:none"
             id="text40"><tspan
               x="0 10.98 23.976 35.964001 50.958 55.944"
               y="0"
               sodipodi:role="line"
               id="tspan38">THEMIS</tspan></text></g><g
           id="g42"><path
             d="m 365.669,355.747 c 59.471,0 104.882,-31.918 104.882,-73.7 0,-41.783 -45.411,-73.701 -104.882,-73.701 -59.471,0 -104.882,31.918 -104.882,73.701 0,41.782 45.411,73.7 104.882,73.7 z"
             style="fill:none;stroke:#3465a4;stroke-width:0.75;stroke-linecap:butt;stroke-linejoin:round;stroke-miterlimit:10;stroke-dasharray:none;stroke-opacity:1"
             id="path44" /></g><g
           id="g46"><text
             transform="matrix(1,0,0,-1,296.192,306.056)"
             style="font-variant:normal;font-weight:normal;font-size:18px;font-family:'Liberation Sans';-inkscape-font-specification:LiberationSans;writing-mode:lr-tb;fill:#000000;fill-opacity:1;fill-rule:nonzero;stroke:none"
             id="text50"><tspan
               x="0 11.988 17.063999 27.072001 32.057999 35.964001 45.972 55.98 60.966 70.973999 80.874001 85.949997 90.935997 96.93 106.938 115.938 125.838 129.834 133.74001"
               y="0"
               sodipodi:role="line"
               id="tspan48">Station de travail </tspan></text></g><g
           id="g52"><text
             transform="matrix(1,0,0,-1,334.205,285.845)"
             style="font-variant:normal;font-weight:normal;font-size:18px;font-family:'Liberation Sans';-inkscape-font-specification:LiberationSans;writing-mode:lr-tb;fill:#000000;fill-opacity:1;fill-rule:nonzero;stroke:none"
             id="text56"><tspan
               x="0 12.996 23.004 32.903999 42.911999 47.897999 57.905998"
               y="0"
               sodipodi:role="line"
               id="tspan54">Ubuntu </tspan></text></g><g
           id="g58"><text
             transform="matrix(1,0,0,-1,302.712,265.747)"
             style="font-variant:normal;font-weight:normal;font-size:18px;font-family:'Liberation Sans';-inkscape-font-specification:LiberationSans;writing-mode:lr-tb;fill:#000000;fill-opacity:1;fill-rule:nonzero;stroke:none"
             id="text62"><tspan
               x="0 10.008 19.007999 28.908001 37.908001 42.984001 52.883999 67.877998 77.886002 87.893997 96.786003 111.78 120.87"
               y="0"
               sodipodi:role="line"
               id="tspan60">avec emoncms </tspan></text></g><g
           id="g64"><text
             transform="matrix(1,0,0,-1,286.809,245.565)"
             style="font-variant:normal;font-weight:normal;font-size:18px;font-family:'Liberation Sans';-inkscape-font-specification:LiberationSans;writing-mode:lr-tb;fill:#000000;fill-opacity:1;fill-rule:nonzero;stroke:none"
             id="text68"><tspan
               x="0 9.8999996 14.886 19.962 28.962 38.970001 48.869999 53.945999 68.849998 78.858002 88.865997 98.765999 102.762 112.662 117.738 129.726 138.726 148.62601"
               y="0"
               sodipodi:role="line"
               id="tspan66">et son module Sync</tspan></text></g><g
           id="g70"><path
             d="m 181.417,282.047 h 79.37"
             style="fill:none;stroke:#3465a4;stroke-width:0.75;stroke-linecap:butt;stroke-linejoin:round;stroke-miterlimit:10;stroke-dasharray:none;stroke-opacity:1"
             id="path72" /></g><g
           id="g74"><text
             transform="matrix(1,0,0,-1,201.713,275.754)"
             style="font-variant:normal;font-weight:normal;font-size:18px;font-family:'Liberation Sans';-inkscape-font-specification:LiberationSans;writing-mode:lr-tb;fill:#000000;fill-opacity:1;fill-rule:nonzero;stroke:none"
             id="text78"><tspan
               x="0 12.906 25.902"
               y="0"
               sodipodi:role="line"
               id="tspan76">www</tspan></text></g><g
           id="g80"><text
             transform="matrix(1,0,0,-1,258.406,160.157)"
             style="font-variant:normal;font-weight:normal;font-size:18px;font-family:'Liberation Sans';-inkscape-font-specification:LiberationSans;writing-mode:lr-tb;fill:#000000;fill-opacity:1;fill-rule:nonzero;stroke:none"
             id="text84"><tspan
               x="0 10.008 14.994 19.98 23.976 33.984001 42.984001 47.970001 58.554001 63.540001 73.547997 78.533997 83.610001 87.515999 96.515999 106.524 110.43 120.438 126.432 135.43201 140.418 150.42599 154.332 164.34 174.34801 178.254 184.248 194.256"
               y="0"
               sodipodi:role="line"
               id="tspan82">1 flux = 2 fichiers binaires</tspan></text></g><g
           id="g86"><text
             transform="matrix(1,0,0,-1,258.406,139.946)"
             style="font-variant:normal;font-weight:normal;font-size:18px;font-family:'Liberation Sans';-inkscape-font-specification:LiberationSans;writing-mode:lr-tb;fill:#000000;fill-opacity:1;fill-rule:nonzero;stroke:none"
             id="text90"><tspan
               x="0 5.994 10.98 20.988001 26.063999 31.049999 34.956001 44.046001 53.945999 57.942001 67.842003 73.835999 78.912003 93.905998 103.806 108.882 118.782 123.858 129.85201 144.84599 154.746 159.82201 169.722 179.73 189.63 199.638 209.646 219.54601 229.554 238.554"
               y="0"
               sodipodi:role="line"
               id="tspan88">- 1 fichier meta (métadonnées)</tspan></text></g><g
           id="g92"><text
             transform="matrix(1,0,0,-1,258.406,119.848)"
             style="font-variant:normal;font-weight:normal;font-size:18px;font-family:'Liberation Sans';-inkscape-font-specification:LiberationSans;writing-mode:lr-tb;fill:#000000;fill-opacity:1;fill-rule:nonzero;stroke:none"
             id="text96"><tspan
               x="0 5.994 10.98 20.988001 26.063999 31.049999 34.956001 44.046001 53.945999 57.942001 67.842003 73.835999 78.912003 88.811996 98.82 103.806 108.882 114.876 124.776 134.784 144.79201 154.692 164.7 174.60001 183.60001"
               y="0"
               sodipodi:role="line"
               id="tspan94">- 1 fichier dat (données)</tspan></text></g><path
           d="m 595.276,319.861 h 9.836 v 9.439 h 9.836 v 9.439 h 122.088 v -75.656 h -9.864 v -9.44 h -9.837 v -9.439 c -45.864,0.595 -46.771,-14.882 -90.368,-18.482 -15.619,2.183 -21.26,3.912 -31.691,6.435 z"
           style="fill:#729fcf;fill-opacity:1;fill-rule:evenodd;stroke:none"
           id="path98" /><g
           id="g100"><path
             d="m 595.276,319.861 h 9.836 v 9.439 h 9.836 v 9.439 h 122.088 v -75.656 h -9.864 v -9.44 h -9.837 v -9.439 c -45.864,0.595 -46.771,-14.882 -90.368,-18.482 -15.619,2.183 -21.26,3.912 -31.691,6.435 z"
             style="fill:none;stroke:#3465a4;stroke-width:0.75;stroke-linecap:butt;stroke-linejoin:round;stroke-miterlimit:10;stroke-dasharray:none;stroke-opacity:1"
             id="path102" /></g><g
           id="g104"><path
             d="M 605.112,319.861 H 717.335 V 253.643"
             style="fill:none;stroke:#3465a4;stroke-width:0.75;stroke-linecap:butt;stroke-linejoin:round;stroke-miterlimit:10;stroke-dasharray:none;stroke-opacity:1"
             id="path106" /></g><g
           id="g108"><path
             d="M 614.948,329.3 H 727.172 V 263.083"
             style="fill:none;stroke:#3465a4;stroke-width:0.75;stroke-linecap:butt;stroke-linejoin:round;stroke-miterlimit:10;stroke-dasharray:none;stroke-opacity:1"
             id="path110" /></g><g
           id="g112"><text
             transform="matrix(1,0,0,-1,598.989,278.56)"
             style="font-style:italic;font-variant:normal;font-size:10.006px;font-family:'Liberation Sans';-inkscape-font-specification:LiberationSans-Italic;writing-mode:lr-tb;fill:#000000;fill-opacity:1;fill-rule:nonzero;stroke:none"
             id="text116"><tspan
               x="0 2.7916739 7.7946739 13.388028 16.690008 19.481682 24.984982 30.488281 33.279957 35.981575 41.574928 49.87991 55.383209 60.886509 65.889511 74.194489 79.197487 81.989166 87.492462 93.085815 98.589119 101.29074 103.49206 108.99536"
               y="0"
               sodipodi:role="line"
               id="tspan114">/var/opt/emoncms/phpfina</tspan></text></g><g
           id="g118"><path
             d="M 470.551,282.047 H 595.276"
             style="fill:none;stroke:#3465a4;stroke-width:0.75;stroke-linecap:butt;stroke-linejoin:round;stroke-miterlimit:10;stroke-dasharray:none;stroke-opacity:1"
             id="path120" /></g><g
           id="g122"><text
             transform="matrix(1,0,0,-1,479.594,285.845)"
             style="font-variant:normal;font-weight:normal;font-size:18px;font-family:'Liberation Sans';-inkscape-font-specification:LiberationSans;writing-mode:lr-tb;fill:#000000;fill-opacity:1;fill-rule:nonzero;stroke:none"
             id="text126"><tspan
               x="0 12.906 22.914 31.914 41.922001 51.821999 61.830002 67.823997 77.723999 82.800003 86.795998 96.695999"
               y="0"
               sodipodi:role="line"
               id="tspan124">Récupération</tspan></text></g><g
           id="g128"><text
             transform="matrix(1,0,0,-1,500.513,265.747)"
             style="font-variant:normal;font-weight:normal;font-size:18px;font-family:'Liberation Sans';-inkscape-font-specification:LiberationSans;writing-mode:lr-tb;fill:#000000;fill-opacity:1;fill-rule:nonzero;stroke:none"
             id="text132"><tspan
               x="0 12.906 22.914 31.914 36.900002 41.976002 45.882 55.889999"
               y="0"
               sodipodi:role="line"
               id="tspan130">Des flux</tspan></text></g></g></g></g></svg>
