<?xml version="1.0" encoding="UTF-8" standalone="no"?>
<svg
   xmlns:dc="http://purl.org/dc/elements/1.1/"
   xmlns:cc="http://creativecommons.org/ns#"
   xmlns:rdf="http://www.w3.org/1999/02/22-rdf-syntax-ns#"
   xmlns:svg="http://www.w3.org/2000/svg"
   xmlns="http://www.w3.org/2000/svg"
   xmlns:sodipodi="http://sodipodi.sourceforge.net/DTD/sodipodi-0.dtd"
   xmlns:inkscape="http://www.inkscape.org/namespaces/inkscape"
   width="80.619308mm"
   height="36.200291mm"
   viewBox="0 0 80.619308 36.20029"
   version="1.1"
   id="svg1457"
   inkscape:version="0.92.3 (2405546, 2018-03-11)"
   sodipodi:docname="themis.svg">
  <defs
     id="defs1451">
    <clipPath
       clipPathUnits="userSpaceOnUse"
       id="clipPath2078">
      <g
         inkscape:label="Clip"
         id="use2080"
         style="fill:#000000;fill-opacity:1">
        <ellipse
           style="opacity:0.4;fill:#000000;fill-opacity:1;stroke:#000000;stroke-width:0.30000001;stroke-opacity:1"
           id="ellipse2141"
           cx="44.034225"
           cy="56.979908"
           rx="12.662203"
           ry="12.000744" />
      </g>
    </clipPath>
  </defs>
  <sodipodi:namedview
     id="base"
     pagecolor="#ffffff"
     bordercolor="#666666"
     borderopacity="1.0"
     inkscape:pageopacity="0.0"
     inkscape:pageshadow="2"
     inkscape:zoom="4"
     inkscape:cx="181.26245"
     inkscape:cy="90.820221"
     inkscape:document-units="mm"
     inkscape:current-layer="layer1"
     inkscape:document-rotation="0"
     showgrid="false"
     width="147mm"
     inkscape:window-width="1299"
     inkscape:window-height="713"
     inkscape:window-x="67"
     inkscape:window-y="27"
     inkscape:window-maximized="1"
     fit-margin-top="0"
     fit-margin-left="0"
     fit-margin-right="0"
     fit-margin-bottom="0">
    <inkscape:grid
       type="xygrid"
       id="grid2346"
       originx="-5.5733742"
       originy="-12.237002" />
  </sodipodi:namedview>
  <metadata
     id="metadata1454">
    <rdf:RDF>
      <cc:Work
         rdf:about="">
        <dc:format>image/svg+xml</dc:format>
        <dc:type
           rdf:resource="http://purl.org/dc/dcmitype/StillImage" />
        <dc:title></dc:title>
      </cc:Work>
    </rdf:RDF>
  </metadata>
  <g
     inkscape:groupmode="layer"
     id="layer2"
     inkscape:label="Calque 2"
     transform="translate(0,-3.000016)">
    <rect
       style="fill:#0000b7;fill-opacity:0.65384617;stroke:none;stroke-width:0.18813328;stroke-miterlimit:4;stroke-dasharray:none;stroke-opacity:1"
       id="rect2462"
       width="73.024994"
       height="22.489582"
       x="4.5845585"
       y="0.95048338"
       transform="scale(1,-1)" />
  </g>
  <g
     inkscape:label="Calque 1"
     inkscape:groupmode="layer"
     id="layer1"
     transform="translate(-5.5733742,-15.237026)">
    <path
       style="opacity:0.4;fill:#000000;fill-opacity:1;stroke:#000000;stroke-width:0.0265165;stroke-opacity:1"
       d="m 78.552719,35.099027 c 0,-0.015 0.292465,-0.176694 0.31796,-0.175797 0.03244,0.0011 -0.05998,0.06677 -0.182711,0.129747 -0.111363,0.05714 -0.135249,0.06527 -0.135249,0.04605 z"
       id="path2112"
       inkscape:connector-curvature="0" />
    <path
       style="opacity:0.4;fill:#000000;fill-opacity:1;stroke:#000000;stroke-width:0.10022;stroke-opacity:1"
       d=""
       id="path2114"
       transform="scale(0.26458333)"
       inkscape:connector-curvature="0" />
    <path
       style="opacity:0.4;fill:#000000;fill-opacity:1;stroke:#000000;stroke-width:0.0501099;stroke-opacity:1"
       d=""
       id="path2122"
       transform="scale(0.26458333)"
       inkscape:connector-curvature="0" />
    <path
       style="opacity:0.4;fill:#000000;fill-opacity:1;stroke:#000000;stroke-width:0.0501099;stroke-opacity:1"
       d=""
       id="path2124"
       transform="scale(0.26458333)"
       inkscape:connector-curvature="0" />
    <path
       style="opacity:0.4;fill:#ffffff;fill-opacity:1;stroke:#000000;stroke-width:0.14173201;stroke-opacity:1"
       d=""
       id="path2231"
       transform="scale(0.26458333)"
       inkscape:connector-curvature="0" />
    <path
       style="opacity:0.4;fill:#ffffff;fill-opacity:1;stroke:#000000;stroke-width:0.14173201;stroke-opacity:1"
       d=""
       id="path2233"
       transform="scale(0.26458333)"
       inkscape:connector-curvature="0" />
    <path
       style="opacity:0.4;fill:#ffffff;fill-opacity:1;stroke:#000000;stroke-width:0.14173201;stroke-opacity:1"
       d=""
       id="path2235"
       transform="scale(0.26458333)"
       inkscape:connector-curvature="0" />
    <path
       style="opacity:0.4;fill:#ffffff;fill-opacity:1;stroke:#000000;stroke-width:0.14173201;stroke-opacity:1"
       d=""
       id="path2237"
       transform="scale(0.26458333)"
       inkscape:connector-curvature="0" />
    <path
       style="opacity:0.4;fill:#ffffff;fill-opacity:1;stroke:#000000;stroke-width:0.14173201;stroke-opacity:1"
       d=""
       id="path2239"
       transform="scale(0.26458333)"
       inkscape:connector-curvature="0" />
    <rect
       style="opacity:1;fill:#ffffff;fill-opacity:1;stroke:none;stroke-width:0.54645061;stroke-miterlimit:4;stroke-dasharray:none;stroke-opacity:1"
       id="rect867-9-2"
       width="8.9247723"
       height="14.762385"
       x="59.073147"
       y="15.61042"
       ry="1.8138838e-06" />
    <ellipse
       style="opacity:1;fill:#0000b7;fill-opacity:0.73333335;stroke:none;stroke-width:0.22266206;stroke-opacity:1"
       id="path2348"
       cx="65.756302"
       cy="23.009464"
       rx="7.4170957"
       ry="7.311398"
       mask="none" />
    <path
       style="display:inline;opacity:1;fill:#f5f5f5;fill-opacity:1;stroke-width:0.04939196"
       d="m 57.485646,15.533614 c 5.493782,0 10.987564,0 16.481345,0 V 30.372807 H 57.485646 Z m 7.750551,13.37815 c 0.122771,-0.168061 0.160844,-0.535651 0.0588,-0.568783 -0.06325,-0.02054 -0.08859,-0.158246 -0.02911,-0.158246 0.01804,0 0.106587,0.05487 0.196819,0.121886 0.217282,0.161464 0.236032,0.154451 0.146379,-0.05469 -0.102879,-0.24001 -0.09737,-0.26218 0.06581,-0.26218 0.153231,0 0.581894,-0.250757 0.627769,-0.367177 0.02295,-0.05827 -0.03025,-0.07159 -0.285903,-0.07159 -0.184162,0 -0.352237,-0.02712 -0.406202,-0.06558 -0.08427,-0.06004 -0.07626,-0.06808 0.09497,-0.09515 0.181972,-0.02878 0.328255,-0.108245 0.328255,-0.178328 0,-0.01903 -0.119918,-0.02492 -0.266487,-0.01304 -0.544298,0.04399 -1.00518,-0.368706 -1.485294,-1.329846 -0.355096,-0.710927 -0.426379,-0.987587 -0.521078,-2.023262 -0.0446,-0.487661 -0.107265,-0.886227 -0.159131,-1.012153 -0.04706,-0.114261 -0.07133,-0.221574 -0.05396,-0.238533 0.08671,-0.08449 0.271627,0.242231 0.357282,0.63107 0.0849,0.385604 0.286189,-0.278012 0.283714,-0.935648 -0.0013,-0.330418 -0.02768,-0.541915 -0.08546,-0.682603 -0.09225,-0.224628 -0.06899,-0.298991 0.06084,-0.194576 0.185873,0.149529 0.321211,0.651608 0.419052,1.554866 0.0087,0.08099 0.214426,-0.250597 0.354998,-0.572402 0.145901,-0.334047 0.164651,-0.426747 0.160463,-0.79269 -0.005,-0.429501 -0.06162,-0.722095 -0.200531,-1.036502 -0.132584,-0.299955 -0.02434,-0.275887 0.302652,0.06737 0.282193,0.29619 0.619963,0.825735 0.707715,1.109303 0.06816,0.220288 -0.0683,0.05741 -0.302272,-0.360865 -0.126674,-0.226493 -0.250594,-0.423947 -0.275244,-0.438812 -0.06718,-0.04046 -0.09369,0.138532 -0.109066,0.736088 -0.013,0.504369 -0.02483,0.56028 -0.181496,0.853184 -0.09221,0.172404 -0.223944,0.386187 -0.292755,0.475091 -0.06881,0.08891 -0.117248,0.168674 -0.107545,0.177232 0.0097,0.0086 0.175217,-0.04707 0.367849,-0.123652 0.192631,-0.07659 0.376413,-0.139877 0.408391,-0.140679 0.118866,-0.0029 0.31141,-0.300148 0.371464,-0.57371 0.03396,-0.154481 0.07998,-0.313791 0.10231,-0.354026 0.05897,-0.10638 0.05414,0.454125 -0.0052,0.606245 -0.08631,0.221152 0.06221,0.14544 0.416863,-0.212497 0.199391,-0.201271 0.389643,-0.452266 0.471112,-0.621608 0.123918,-0.257737 0.136572,-0.335964 0.136572,-0.844696 0,-0.525739 -0.0097,-0.5805 -0.154945,-0.879193 -0.08521,-0.175205 -0.237173,-0.430113 -0.337771,-0.566485 -0.219092,-0.297062 -0.225754,-0.33326 -0.04522,-0.243616 0.07568,0.03758 0.307983,0.0835 0.516226,0.102105 0.722273,0.06442 1.472921,0.407038 2.046333,0.934063 0.409346,0.376226 0.498047,0.558036 0.746832,1.530715 0.09946,0.388808 0.203291,0.702187 0.230892,0.696395 0.166648,-0.03507 0.114297,-1.429895 -0.07643,-2.03711 -0.271115,-0.863151 -0.827787,-1.483472 -1.68545,-1.878308 -1.114657,-0.513118 -2.305066,-0.361945 -3.579815,0.454621 -1.031172,0.660538 -1.575577,1.514115 -1.813503,2.843444 -0.192441,1.075049 0,2.321051 0.54392,3.525602 0.293137,0.648973 0.669262,1.183801 1.279281,1.819267 0.276766,0.28834 0.503279,0.545707 0.503279,0.571923 0,0.159665 -0.893873,0.112397 -1.360027,-0.07194 -0.450837,-0.178261 -0.788421,-0.410962 -1.184983,-0.816758 -0.530213,-0.542554 -1.458101,-1.650681 -1.458101,-1.741276 0,-0.199466 0.113162,-0.254071 0.53031,-0.25584 0.220136,-9.94e-4 0.516698,0.01387 0.659175,0.03303 l 0.258967,0.03472 -0.06999,-0.235954 c -0.03849,-0.129767 -0.107446,-0.356637 -0.153134,-0.504115 -0.06349,-0.204678 -0.0985,-0.666289 -0.147996,-1.950132 -0.04325,-1.122661 -0.08567,-1.725777 -0.127628,-1.813664 -0.0766,-0.160629 -0.281715,-0.214494 -0.522314,-0.137114 -0.281048,0.09038 -0.662696,0.680615 -1.009046,1.560758 -0.142569,0.362281 -0.143901,0.37509 -0.140286,1.389468 0.0032,0.89763 0.01715,1.071893 0.113731,1.413844 0.238793,0.845453 0.708856,1.582773 1.452061,2.277823 0.274196,0.256418 0.600167,0.534331 0.72437,0.617585 0.342244,0.229456 0.966224,0.518809 1.370883,0.635769 0.364803,0.105414 0.463593,0.187883 0.463593,0.386722 0,0.05345 -0.05894,0.14235 -0.130965,0.197535 -0.136474,0.104613 -0.129247,0.113741 0.135715,0.169798 0.09632,0.02039 0.159415,-0.0032 0.244692,-0.0917 0.09764,-0.10129 0.110214,-0.152358 0.08379,-0.340299 -0.03514,-0.249854 0.02119,-0.285895 0.149231,-0.09544 0.07802,0.115998 0.07845,0.144153 0.0058,0.365648 l -0.07876,0.239976 h 0.117067 c 0.07373,0 0.157799,-0.05576 0.227085,-0.150524 z m 1.361387,0.118535 c -0.03388,-0.01331 -0.101451,-0.01415 -0.15009,-0.0018 -0.04869,0.01234 -0.02095,0.02329 0.0616,0.02428 0.08256,9.94e-4 0.122396,-0.0091 0.0885,-0.02248 z m 0.373272,-0.04624 c -0.01662,-0.01619 -0.05978,-0.01794 -0.09593,-0.0037 -0.03992,0.01555 -0.02806,0.02712 0.03023,0.02946 0.05274,0.0021 0.08231,-0.0094 0.0657,-0.0256 z m 0.250212,-0.04875 c -0.01662,-0.0162 -0.05979,-0.01794 -0.09593,-0.0037 -0.03992,0.01557 -0.02806,0.02712 0.03023,0.02946 0.05274,0.0021 0.08231,-0.0094 0.0657,-0.0256 z m 2.01511,-0.728726 c 0,-0.01347 -0.06755,0.0097 -0.150089,0.05126 -0.08257,0.0416 -0.150089,0.08658 -0.150089,0.100001 0,0.01347 0.06755,-0.0097 0.150089,-0.05126 0.08256,-0.0416 0.150089,-0.08659 0.150089,-0.100001 z m 0.350242,-0.19593 c 0,-0.01347 -0.04503,-9.93e-4 -0.100125,0.02781 -0.05504,0.0287 -0.100124,0.06316 -0.100124,0.07654 0,0.01347 0.04503,9.94e-4 0.100124,-0.02781 0.05504,-0.0287 0.100125,-0.06316 0.100125,-0.07656 z m -1.31957,-0.04418 c 0.911672,-0.126291 1.161247,-0.207897 1.426516,-0.466344 0.265724,-0.258865 0.641758,-0.966232 0.763485,-1.436165 0.195771,-0.755689 0.153421,-1.27924 -0.169505,-2.096377 -0.172263,-0.43588 -0.57742,-1.427908 -0.702288,-1.719468 -0.04599,-0.107375 -0.05277,-0.108398 -0.233081,-0.03501 -0.102116,0.04157 -0.191492,0.08118 -0.198438,0.088 -0.0071,0.0069 0.04813,0.132277 0.122494,0.278783 l 0.135241,0.266362 0.01513,-0.25597 c 0.02435,-0.412045 0.210051,-0.272669 0.210051,0.157666 0,0.271737 -0.07993,0.431131 -0.333681,0.665381 -0.221661,0.204615 -0.367945,0.286087 -0.513752,0.286087 -0.14019,0 -0.130202,-0.06707 0.02173,-0.146244 0.168648,-0.08797 0.158846,-0.112269 -0.07428,-0.183155 -0.270103,-0.08215 -0.285426,-0.07905 -0.32245,0.06471 -0.04893,0.189974 -0.151612,0.113741 -0.169504,-0.125812 -0.01797,-0.24091 0.09679,-0.582322 0.273529,-0.813961 0.06558,-0.08595 0.299226,-0.261374 0.519268,-0.389818 0.220045,-0.128449 0.413059,-0.273667 0.429046,-0.322678 0.01596,-0.04901 0.0017,-0.153322 -0.03162,-0.231771 -0.04995,-0.117485 -0.09019,-0.142674 -0.227847,-0.142674 -0.09197,0 -0.28143,0.04389 -0.421145,0.09749 -0.437229,0.167902 -0.593217,0.107404 -0.287712,-0.111623 0.176643,-0.126653 0.371275,-0.205933 0.625485,-0.254874 0.08945,-0.01723 0.162652,-0.05907 0.162652,-0.09299 0,-0.116544 -0.384312,-0.640917 -0.604926,-0.82531 -0.423714,-0.354204 -1.184859,-0.654087 -1.861543,-0.733428 l -0.239746,-0.0281 0.131339,0.167803 c 0.07224,0.09229 0.188825,0.327837 0.259065,0.523436 0.316929,0.882668 0.03095,1.910995 -0.687345,2.471663 -0.116875,0.09125 -0.513466,0.314178 -0.88122,0.495389 -1.112469,0.548162 -1.369734,0.773149 -1.369734,1.197911 0,0.143864 0.02252,0.261567 0.05004,0.261567 0.02752,0 0.05004,-0.04023 0.05004,-0.08939 0,-0.128197 0.04741,-0.156799 0.153135,-0.09247 0.07562,0.04602 0.113067,0.03633 0.20729,-0.05361 0.06323,-0.06037 0.180733,-0.16034 0.261156,-0.22212 l 0.146093,-0.112323 -0.08451,-0.205774 c -0.09171,-0.22331 -0.06959,-0.338675 0.04687,-0.244513 0.03883,0.03139 0.07061,0.08392 0.07061,0.116697 0,0.0328 0.04203,0.09666 0.0934,0.141966 0.07968,0.07025 0.128584,0.07465 0.333204,0.03001 0.534975,-0.116797 0.881978,-0.03436 1.191293,0.282967 0.189871,0.194832 0.108885,0.225464 -0.212617,0.08034 -0.145332,-0.0656 -0.271819,-0.119278 -0.281146,-0.119278 -0.0093,0 -0.0048,0.07259 0.01,0.161303 0.01477,0.08871 0.0027,0.246542 -0.02682,0.350718 -0.02952,0.104194 -0.04364,0.199176 -0.03137,0.211148 0.01233,0.01193 0.10022,-0.03616 0.195486,-0.106954 0.173122,-0.128646 0.32997,-0.168449 0.32997,-0.08372 0,0.02472 -0.09518,0.124326 -0.211479,0.221348 -0.433325,0.361415 -1.17652,0.458323 -1.71964,0.224242 -0.412294,-0.177684 -0.231081,-0.258512 0.279907,-0.124916 0.151328,0.03958 0.320261,0.07176 0.375272,0.07146 0.09745,-4.04e-4 0.09737,-0.0026 -0.0067,-0.08476 -0.05876,-0.04634 -0.166268,-0.17794 -0.238981,-0.292458 -0.147234,-0.231965 -0.121913,-0.234701 -0.541254,0.05839 -0.130108,0.09093 -0.26487,0.174529 -0.299513,0.185791 -0.128681,0.0418 0.263918,0.981747 0.623009,1.491569 0.127158,0.180514 0.167124,0.206738 0.274957,0.180354 0.114216,-0.02793 0.123823,-0.01895 0.101549,0.09473 -0.02063,0.10509 -0.0094,0.120866 0.06854,0.09676 0.06476,-0.02002 0.139048,0.0201 0.243453,0.131532 0.166175,0.177298 0.202818,0.109857 0.07541,-0.138936 -0.06948,-0.135698 -0.17531,-0.57549 -0.17531,-0.728534 0,-0.173724 0.09212,-0.02855 0.214808,0.338585 0.162841,0.48711 0.24983,0.622259 0.342911,0.53276 0.05001,-0.04808 0.05148,-0.09425 0.0067,-0.209955 -0.04639,-0.119701 -0.04408,-0.153325 0.0119,-0.174271 0.100883,-0.03771 0.163127,0.01413 0.2761,0.229775 0.05521,0.105442 0.133719,0.191713 0.174453,0.191713 0.05257,0 0.07405,0.05456 0.07405,0.188204 0,0.377638 0.05926,0.640585 0.144379,0.640777 0.04442,9.7e-5 0.249643,0.06516 0.456075,0.14457 0.432278,0.166324 0.498141,0.17054 1.182383,0.07574 z m 0.343863,-1.292948 c -0.02091,-0.03295 -0.0095,-0.07687 0.02522,-0.09783 0.08863,-0.05338 0.647373,-0.1651 0.677734,-0.135528 0.01371,0.01347 -0.01638,0.0742 -0.06697,0.13508 -0.108206,0.130188 -0.570473,0.201591 -0.635981,0.09828 z M 67.910996,26.28475 c -0.05242,-0.08263 0.542014,-0.659766 0.809642,-0.78603 0.282954,-0.133496 0.58418,-0.112914 0.60664,0.04148 0.02292,0.157313 -0.210618,0.626271 -0.347386,0.697582 -0.166266,0.08668 -1.019902,0.1242 -1.068896,0.04697 z m -2.49828,-0.481742 c -0.04802,-0.07571 0.01418,-0.445943 0.07492,-0.445943 0.05418,0 0.05466,0.276948 6.38e-4,0.411167 -0.02694,0.06699 -0.0488,0.07706 -0.07561,0.03477 z m -1.113155,-0.667436 c -0.0163,-0.04138 -0.0188,-0.08578 -0.0055,-0.09865 0.04457,-0.04344 0.188445,0.03748 0.188445,0.105959 0,0.09225 -0.145995,0.08643 -0.182848,-0.0073 z m 4.107994,-0.09196 c -0.09506,-0.06818 -0.09515,-0.07331 -0.0046,-0.238595 0.115157,-0.210149 0.374796,-0.520534 0.435327,-0.520534 0.02487,0 0.08279,0.05583 0.12868,0.124103 0.06945,0.103295 0.07404,0.154676 0.02738,0.306455 -0.107348,0.349206 -0.360518,0.490947 -0.586823,0.328565 z m -4.275376,-0.836318 c 0,-0.04244 0.02674,-0.06851 0.05942,-0.05788 0.09279,0.03013 0.108208,0.135079 0.01981,0.135079 -0.04358,0 -0.07922,-0.03475 -0.07922,-0.07719 z m 5.91097,3.502109 c 0.06224,-0.07733 0.06047,-0.07906 -0.01889,-0.01841 -0.04816,0.03681 -0.08757,0.0752 -0.08757,0.08533 0,0.04013 0.04109,0.0143 0.106505,-0.06689 z m -5.867408,-0.195025 c -0.437801,-0.452471 -0.630053,-0.673037 -1.037378,-1.190095 -0.395924,-0.502569 -0.460737,-0.562619 -0.713044,-0.660477 -0.368228,-0.142803 -0.734171,-0.23615 -0.773954,-0.197376 -0.03853,0.03752 0.08451,0.212949 0.548773,0.782428 0.277051,0.339856 0.358521,0.412865 0.393258,0.352434 0.05753,-0.100168 0.135146,-0.05094 0.103833,0.06583 -0.07084,0.263917 1.073905,1.019602 1.557696,1.028309 0.08235,0.0016 0.06989,-0.027 -0.07918,-0.181057 z m 6.136236,-0.01219 c 0.04982,-0.05365 0.07932,-0.0975 0.06554,-0.0975 -0.01371,0 -0.06578,0.04389 -0.115639,0.0975 -0.04982,0.05363 -0.0793,0.09749 -0.06554,0.09749 0.01371,0 0.06578,-0.04389 0.115639,-0.09749 z M 64.303465,27.24623 c -1.455193,-1.529842 -1.990069,-3.158111 -1.83725,-5.59298 0.05249,-0.836384 0.04228,-0.916759 -0.16208,-1.276564 -0.113731,-0.200369 -0.08751,-0.249279 0.07214,-0.134284 0.0801,0.0577 0.198343,0.224148 0.262682,0.369871 l 0.117065,0.264979 0.03213,-0.185598 c 0.02311,-0.133442 0.0126,-0.196538 -0.03753,-0.224564 -0.03832,-0.02144 -0.06967,-0.0752 -0.06967,-0.119448 0,-0.06259 0.0133,-0.06744 0.06005,-0.02196 0.110684,0.107893 0.189397,0.0603 0.422858,-0.255873 0.127629,-0.172919 0.262679,-0.325793 0.299989,-0.339741 0.09907,-0.03703 0.08289,-0.110727 -0.03062,-0.139652 -0.105646,-0.0269 -0.292754,-0.352691 -0.234983,-0.409 0.01915,-0.01864 0.09641,0.01428 0.171598,0.0732 0.297609,0.23306 0.325876,0.232995 0.621485,-0.0016 0.481677,-0.382266 1.300477,-0.8153 1.831395,-0.968576 0.32816,-0.09476 0.163604,-0.141357 -0.502137,-0.142192 -0.443987,-6.07e-4 -0.584938,0.01418 -0.575423,0.0602 0.0069,0.03352 -0.15637,0.144022 -0.362803,0.245543 -1.057241,0.520034 -2.305865,1.263247 -2.548196,1.516746 -0.146379,0.153133 -0.09965,0.162431 0.127919,0.02542 0.177499,-0.106857 0.200532,-0.09656 0.118396,0.05296 -0.03369,0.06136 -0.03347,0.101386 6.38e-4,0.121985 0.02799,0.01685 0.100221,0.122407 0.160462,0.23454 0.103171,0.192 0.111545,0.29072 0.14381,1.690867 0.02845,1.236182 0.05213,1.570947 0.140476,1.98486 0.182353,0.854251 0.556293,1.706174 1.044039,2.37856 0.229085,0.315818 0.939749,1.096946 0.997948,1.096946 0.01401,0 -0.104984,-0.137113 -0.264446,-0.304701 z m -1.602369,-7.130574 c -0.06904,-0.06724 -0.111738,-0.144056 -0.09485,-0.170637 0.05094,-0.08028 0.09449,-0.05514 0.212905,0.122884 0.131434,0.197697 0.06393,0.225015 -0.118052,0.04776 z m 0.330255,-0.389618 c 0,-0.04022 0.02252,-0.07313 0.05004,-0.07313 0.02752,0 0.05004,0.03293 0.05004,0.07313 0,0.04023 -0.02252,0.07313 -0.05004,0.07313 -0.02752,0 -0.05004,-0.03293 -0.05004,-0.07313 z m 7.756039,7.361766 c 0.149518,-0.147468 0.260491,-0.268132 0.246788,-0.268132 -0.01371,0 -0.147331,0.120667 -0.296849,0.268132 -0.149518,0.147468 -0.260491,0.268131 -0.246787,0.268131 0.01371,0 0.147331,-0.120667 0.296848,-0.268131 z m 0.425334,-0.463155 c 0.04982,-0.05363 0.07932,-0.09749 0.06556,-0.09749 -0.01371,0 -0.06578,0.04389 -0.115642,0.09749 -0.0498,0.05365 -0.07932,0.0975 -0.06554,0.0975 0.01371,0 0.06578,-0.04389 0.115642,-0.0975 z M 71.39422,26.39307 c 0.06223,-0.07733 0.06047,-0.07907 -0.01889,-0.01841 -0.08335,0.06369 -0.109828,0.103743 -0.06868,0.103743 0.01039,0 0.04979,-0.03839 0.08757,-0.08533 z m -8.815499,-1.040142 c -0.102021,-0.185822 -0.507847,-0.273923 -1.123603,-0.243967 -0.246218,0.01193 -0.04203,0.08514 0.325875,0.11677 0.179211,0.01541 0.426948,0.07166 0.550388,0.12497 0.28895,0.124789 0.314741,0.125014 0.24734,0.0022 z m 1.833211,-2.001892 c 0.05646,-0.08901 -0.146852,0.0369 -0.255254,0.158086 l -0.09956,0.111231 0.161128,-0.108986 c 0.08861,-0.05994 0.175786,-0.132081 0.193678,-0.16034 z m -3.72685,-2.457145 c 0.05367,-0.108496 0.277053,-0.401725 0.496334,-0.651638 0.219279,-0.24992 0.398778,-0.471401 0.398778,-0.492198 0,-0.0208 0.05066,-0.05139 0.112596,-0.06799 0.06191,-0.0166 0.179688,-0.08417 0.261728,-0.15017 l 0.149139,-0.119953 -0.195965,-0.195508 c -0.231368,-0.23087 -0.207479,-0.310575 0.0383,-0.127873 0.16684,0.124004 0.173121,0.124914 0.198723,0.0293 0.01458,-0.05427 0.06497,-0.09872 0.112014,-0.09872 0.0797,0 0.07994,0.0083 0.0036,0.121889 -0.04702,0.06993 -0.05904,0.121886 -0.02817,0.121886 0.02958,0 0.07769,-0.06679 0.106879,-0.148467 0.05481,-0.153163 0.178831,-0.174528 0.151328,-0.02603 -0.01288,0.06943 0.0013,0.07468 0.08478,0.03124 0.05513,-0.02876 0.117068,-0.07957 0.137623,-0.11294 0.02511,-0.04073 0.0095,-0.03867 -0.04725,0.0062 -0.07203,0.05693 -0.08466,0.05657 -0.08466,-0.0024 -2e-5,-0.07326 0.09499,-0.18637 0.156559,-0.18637 0.02006,0 0.06819,0.03092 0.106976,0.0687 0.0447,0.04354 0.09622,0.05326 0.140667,0.02647 0.08355,-0.05032 0.09565,-0.931444 0.01858,-1.356261 l -0.04745,-0.261635 -0.300276,0.220801 c -0.424284,0.312053 -1.176263,1.075628 -1.415626,1.437448 -0.367276,0.555179 -0.587223,1.211758 -0.730269,2.180253 -0.02482,0.167996 -0.02146,0.178132 0.02428,0.07313 0.02921,-0.06702 0.09698,-0.210632 0.150661,-0.319133 z m 0.09565,-0.546239 c 10e-4,-0.134437 0.195771,-0.4397 0.197962,-0.310349 0.0019,0.118285 -0.113164,0.444438 -0.156942,0.444438 -0.02316,0 -0.04163,-0.06034 -0.04102,-0.134085 z m 0.206908,-0.597227 c 0,-0.06702 0.01135,-0.09448 0.02523,-0.06095 0.01389,0.03352 0.01389,0.08836 0,0.121887 -0.01388,0.03352 -0.02523,0.0062 -0.02523,-0.06093 z m 0.305414,-0.179936 c 0.04653,-0.04533 0.0986,-0.06873 0.115821,-0.052 0.04926,0.04798 -0.02636,0.134409 -0.117537,0.134409 -0.07639,0 -0.07624,-0.0064 0.0017,-0.08241 z m 0.444745,-0.161399 c 0.04006,-0.111976 0.06992,-0.139007 0.110215,-0.09982 0.06081,0.05924 -0.0042,0.201106 -0.107446,0.23467 -0.0431,0.01402 -0.04379,-0.02006 -0.0027,-0.134858 z m -0.658032,-0.01676 c 0,-0.0827 0.18949,-0.253556 0.233653,-0.210599 0.05329,0.05194 -0.07459,0.276178 -0.157514,0.276178 -0.04187,0 -0.07614,-0.02952 -0.07614,-0.06558 z m 0.900726,-0.410229 c 0,-0.05644 0.205385,-0.169122 0.242503,-0.132991 0.01793,0.01745 -0.01107,0.06284 -0.06448,0.10087 -0.107072,0.07626 -0.177975,0.08906 -0.178028,0.03211 z m -0.600452,-0.109244 c 0.05183,-0.09435 0.200151,-0.137689 0.200151,-0.05849 0,0.0614 -0.113358,0.155994 -0.186921,0.155994 -0.0513,0 -0.05439,-0.02263 -0.0133,-0.0975 z m 1.012252,-0.0091 c 0.03093,-0.09038 0.138667,-0.105385 0.138667,-0.01929 0,0.04244 -0.03566,0.07719 -0.07922,0.07719 -0.04358,0 -0.07032,-0.02605 -0.05944,-0.0579 z m 0.408867,-0.107852 c -0.01832,-0.0465 -0.0086,-0.108694 0.02173,-0.138209 0.04004,-0.03899 0.06413,-0.03056 0.08834,0.03093 0.01832,0.0465 0.0086,0.108693 -0.02173,0.138208 -0.04004,0.03899 -0.06413,0.03056 -0.08834,-0.03092 z m -0.370323,-0.130834 c 0,-0.118802 0.116972,-0.102032 0.141239,0.02029 0.0095,0.04811 -0.01596,0.08128 -0.06256,0.08128 -0.04641,0 -0.07872,-0.04167 -0.0787,-0.101569 z m -0.676591,-0.189818 c 0.04922,-0.053 0.110117,-0.08394 0.135242,-0.0688 0.06239,0.03755 -0.05202,0.165132 -0.148091,0.165132 -0.06457,0 -0.06254,-0.01523 0.01287,-0.09637 z m 1.008826,0.01374 c -0.05636,-0.05489 -0.03432,-0.112422 0.04306,-0.112422 0.04128,0 0.07505,0.02064 0.07505,0.04589 0,0.06148 -0.07814,0.105511 -0.11812,0.06655 z m 0.09154,-0.261151 c -0.04754,-0.07497 0.01757,-0.12333 0.08181,-0.06076 0.03593,0.03501 0.03679,0.0623 0.0027,0.08285 -0.02802,0.01687 -0.06602,0.0069 -0.08441,-0.02211 z m -0.473775,-0.09505 c -0.161796,-0.157636 -0.114493,-0.22672 0.05004,-0.07313 0.08257,0.07706 0.150088,0.146987 0.150088,0.155385 0,0.04843 -0.114215,0.0016 -0.200127,-0.08225 z m 0.236506,-0.02957 c -0.04835,-0.04711 0.01893,-0.165455 0.09407,-0.165455 0.03833,0 0.06971,0.01925 0.06971,0.04279 0,0.06082 -0.128487,0.157058 -0.163782,0.122659 z m -0.209377,-0.21082 c -0.037,-0.05834 0.05713,-0.116123 0.12382,-0.076 0.05596,0.03369 0.01923,0.121411 -0.05085,0.121411 -0.02428,0 -0.05709,-0.02043 -0.07292,-0.04537 z m 0.246024,-0.152873 c -0.01815,-0.0286 -0.02097,-0.06371 -0.0063,-0.078 0.03584,-0.03491 0.13343,0.02661 0.13343,0.08414 0,0.0623 -0.08639,0.05815 -0.127147,-0.0062 z m 1.203941,0.837766 c 0.202815,-0.104124 0.44075,-0.213752 0.528691,-0.243614 l 0.159891,-0.05431 -0.21966,-0.234187 c -0.120778,-0.1288 -0.350622,-0.381179 -0.510609,-0.560823 -0.166173,-0.186499 -0.331301,-0.326627 -0.384979,-0.326627 -0.159322,0 -0.241362,0.169509 -0.195393,0.403406 0.02229,0.113292 0.05626,0.430886 0.07549,0.705731 0.0269,0.384479 0.05144,0.499721 0.106408,0.499721 0.03929,0 0.237363,-0.08518 0.440168,-0.189296 z m -0.351764,-0.0179 c -0.01233,-0.03352 -0.02849,-0.291298 -0.03596,-0.572849 -0.01273,-0.480138 -0.0073,-0.512778 0.08664,-0.525911 0.07792,-0.01094 0.157987,0.07774 0.360043,0.398425 0.280382,0.445035 0.282096,0.423842 -0.04748,0.586516 -0.10317,0.05094 -0.187684,0.111105 -0.187684,0.133694 0,0.06486 -0.150754,0.04781 -0.175557,-0.0199 z"
       id="path2396"
       sodipodi:nodetypes="ccccccsscsssssssccsscccsccccccscccssssccccccsscscsscscscccscsssccscccsscssccscssccccscccssccccccccccccsssssccsccccccssscccssssccscssccscssscsccccssssssccssscccsscccsscsccccscsccscsscssccssscccsccssssscssssssssccsccssscsssscssscssccssccscccsscscscsscsccsssccscscccsscsssccccsssssccsssssssssssscscsccsssssssssssccssscssscccccscscsccccssccccsscccsssssscsscccccsccssscssscsscccssccsscssscscscssscccsscssssscssscssssssssssscsssccsccsccccscsssssscccsssscc"
       inkscape:connector-curvature="0" />
    <rect
       style="opacity:1;fill:none;fill-opacity:1;stroke:none;stroke-width:0.109;stroke-miterlimit:4;stroke-dasharray:none;stroke-opacity:1"
       id="rect2460"
       width="62.177082"
       height="21.166666"
       x="5.8208332"
       y="15.610415" />
    <text
       xml:space="preserve"
       style="font-style:normal;font-variant:normal;font-weight:normal;font-stretch:normal;font-size:19.75555611px;line-height:1.25;font-family:sans-serif;-inkscape-font-specification:'sans-serif, Normal';font-variant-ligatures:normal;font-variant-caps:normal;font-variant-numeric:normal;font-feature-settings:normal;text-align:start;letter-spacing:0px;word-spacing:0px;writing-mode:lr-tb;text-anchor:start;fill:#000000;fill-opacity:1;stroke:#000000;stroke-width:0.9;stroke-miterlimit:4;stroke-dasharray:none;stroke-opacity:1;"
       x="6.4042602"
       y="44.678272"
       id="text930"><tspan
         sodipodi:role="line"
         id="tspan928"
         x="6.4042602"
         y="44.678272"
         style="font-style:normal;font-variant:normal;font-weight:normal;font-stretch:normal;font-size:19.75555611px;font-family:sans-serif;-inkscape-font-specification:'sans-serif, Normal';font-variant-ligatures:normal;font-variant-caps:normal;font-variant-numeric:normal;font-feature-settings:normal;text-align:start;writing-mode:lr-tb;text-anchor:start;fill:#000000;fill-opacity:1;stroke:#000000;stroke-width:0.9;stroke-miterlimit:4;stroke-dasharray:none;stroke-opacity:1;">THEMIS</tspan></text>
    <ellipse
       style="opacity:1;fill:none;fill-opacity:0.73333333;stroke:#000000;stroke-width:0.371;stroke-miterlimit:4;stroke-dasharray:none;stroke-opacity:1"
       id="path979"
       cx="65.757515"
       cy="22.940533"
       rx="7.0673847"
       ry="7.1541629" />
  </g>
</svg>
